<svg width="122" height="43" viewBox="0 0 122 43" fill="none" xmlns="http://www.w3.org/2000/svg">
<rect width="43" height="43" fill="#514C4C"/>
<path d="M51.146 31V10.41H55.148V27.491H65.646V31H51.146ZM74.6093 31.29C73.3719 31.29 72.2603 31.087 71.2743 30.681C70.2883 30.2557 69.4473 29.6757 68.7513 28.941C68.0746 28.2063 67.5526 27.3653 67.1853 26.418C66.8179 25.4707 66.6343 24.475 66.6343 23.431C66.6343 22.3677 66.8179 21.3623 67.1853 20.415C67.5526 19.4677 68.0746 18.6267 68.7513 17.892C69.4473 17.1573 70.2883 16.587 71.2743 16.181C72.2603 15.7557 73.3719 15.543 74.6093 15.543C75.8466 15.543 76.9486 15.7557 77.9153 16.181C78.9013 16.587 79.7423 17.1573 80.4383 17.892C81.1343 18.6267 81.6563 19.4677 82.0043 20.415C82.3716 21.3623 82.5553 22.3677 82.5553 23.431C82.5553 24.475 82.3716 25.4707 82.0043 26.418C81.6563 27.3653 81.1343 28.2063 80.4383 28.941C79.7616 29.6757 78.9303 30.2557 77.9443 30.681C76.9583 31.087 75.8466 31.29 74.6093 31.29ZM70.6363 23.431C70.6363 24.3203 70.8103 25.113 71.1583 25.809C71.5063 26.4857 71.9799 27.0173 72.5793 27.404C73.1786 27.7907 73.8553 27.984 74.6093 27.984C75.3439 27.984 76.0109 27.7907 76.6103 27.404C77.2096 26.998 77.6833 26.4567 78.0313 25.78C78.3986 25.084 78.5823 24.2913 78.5823 23.402C78.5823 22.532 78.3986 21.749 78.0313 21.053C77.6833 20.357 77.2096 19.8157 76.6103 19.429C76.0109 19.0423 75.3439 18.849 74.6093 18.849C73.8553 18.849 73.1786 19.052 72.5793 19.458C71.9799 19.8447 71.5063 20.386 71.1583 21.082C70.8103 21.7587 70.6363 22.5417 70.6363 23.431ZM91.1232 31.087C90.1178 31.087 89.1898 30.8937 88.3392 30.507C87.5078 30.101 86.7828 29.5403 86.1642 28.825C85.5648 28.1097 85.1008 27.288 84.7722 26.36C84.4435 25.432 84.2792 24.446 84.2792 23.402C84.2792 22.3 84.4532 21.2753 84.8012 20.328C85.1492 19.3807 85.6325 18.5493 86.2512 17.834C86.8892 17.0993 87.6335 16.5387 88.4842 16.152C89.3542 15.746 90.3112 15.543 91.3552 15.543C92.5345 15.543 93.5688 15.8137 94.4582 16.355C95.3475 16.877 96.0822 17.5827 96.6622 18.472V15.804H100.055V30.275C100.055 31.783 99.6878 33.0687 98.9532 34.132C98.2378 35.2147 97.2422 36.0363 95.9662 36.597C94.6902 37.177 93.2402 37.467 91.6162 37.467C89.9728 37.467 88.5808 37.1867 87.4402 36.626C86.2995 36.0847 85.3232 35.3113 84.5112 34.306L86.6282 32.247C87.2082 32.9623 87.9332 33.523 88.8032 33.929C89.6925 34.335 90.6302 34.538 91.6162 34.538C92.4475 34.538 93.2015 34.3833 93.8782 34.074C94.5742 33.784 95.1252 33.32 95.5312 32.682C95.9565 32.0633 96.1692 31.261 96.1692 30.275V28.361C95.6665 29.231 94.9512 29.9077 94.0232 30.391C93.1145 30.855 92.1478 31.087 91.1232 31.087ZM92.4282 27.984C92.8535 27.984 93.2595 27.9163 93.6462 27.781C94.0328 27.6457 94.3905 27.462 94.7192 27.23C95.0478 26.998 95.3378 26.7273 95.5892 26.418C95.8405 26.0893 96.0338 25.7607 96.1692 25.432V21.807C95.9372 21.2077 95.6085 20.6857 95.1832 20.241C94.7772 19.7963 94.3132 19.458 93.7912 19.226C93.2885 18.9747 92.7568 18.849 92.1962 18.849C91.5968 18.849 91.0555 18.9747 90.5722 19.226C90.0888 19.4773 89.6732 19.835 89.3252 20.299C88.9772 20.7437 88.7065 21.2463 88.5132 21.807C88.3392 22.3483 88.2522 22.9187 88.2522 23.518C88.2522 24.1367 88.3585 24.7167 88.5712 25.258C88.7838 25.7993 89.0738 26.273 89.4412 26.679C89.8278 27.085 90.2725 27.404 90.7752 27.636C91.2972 27.868 91.8482 27.984 92.4282 27.984ZM110.576 31.29C109.339 31.29 108.227 31.087 107.241 30.681C106.255 30.2557 105.414 29.6757 104.718 28.941C104.041 28.2063 103.519 27.3653 103.152 26.418C102.785 25.4707 102.601 24.475 102.601 23.431C102.601 22.3677 102.785 21.3623 103.152 20.415C103.519 19.4677 104.041 18.6267 104.718 17.892C105.414 17.1573 106.255 16.587 107.241 16.181C108.227 15.7557 109.339 15.543 110.576 15.543C111.813 15.543 112.915 15.7557 113.882 16.181C114.868 16.587 115.709 17.1573 116.405 17.892C117.101 18.6267 117.623 19.4677 117.971 20.415C118.338 21.3623 118.522 22.3677 118.522 23.431C118.522 24.475 118.338 25.4707 117.971 26.418C117.623 27.3653 117.101 28.2063 116.405 28.941C115.728 29.6757 114.897 30.2557 113.911 30.681C112.925 31.087 111.813 31.29 110.576 31.29ZM106.603 23.431C106.603 24.3203 106.777 25.113 107.125 25.809C107.473 26.4857 107.947 27.0173 108.546 27.404C109.145 27.7907 109.822 27.984 110.576 27.984C111.311 27.984 111.978 27.7907 112.577 27.404C113.176 26.998 113.65 26.4567 113.998 25.78C114.365 25.084 114.549 24.2913 114.549 23.402C114.549 22.532 114.365 21.749 113.998 21.053C113.65 20.357 113.176 19.8157 112.577 19.429C111.978 19.0423 111.311 18.849 110.576 18.849C109.822 18.849 109.145 19.052 108.546 19.458C107.947 19.8447 107.473 20.386 107.125 21.082C106.777 21.7587 106.603 22.5417 106.603 23.431Z" fill="#D94E3C"/>
<circle cx="21.5" cy="20.5" r="11.5" fill="#D9D9D9"/>
</svg>
