<svg width="16" height="16" viewBox="0 0 16 16" fill="none" xmlns="http://www.w3.org/2000/svg">
<path fill-rule="evenodd" clip-rule="evenodd" d="M8 0C6.59574 0 5.21619 0.369687 3.99995 1.07182C2.78381 1.77395 1.77398 2.78381 1.07182 3.99995C0.369687 5.21622 0 6.59574 0 8C0 9.40426 0.369687 10.7838 1.07182 12C1.77395 13.2162 2.78381 14.226 3.99995 14.9282C5.21622 15.6303 6.59574 16 8 16C9.40426 16 10.7838 15.6303 12 14.9282C13.2162 14.2261 14.226 13.2162 14.9282 12C15.6303 10.7838 16 9.40426 16 8C16 6.59574 15.6303 5.21619 14.9282 3.99995C14.2261 2.78381 13.2162 1.77398 12 1.07182C10.7838 0.369687 9.40426 0 8 0ZM8 2.81122C8.27703 2.81122 8.54284 2.92121 8.73868 3.11718C8.93466 3.31304 9.04465 3.57884 9.04465 3.85586C9.04465 4.1329 8.93465 4.3987 8.73868 4.59455C8.54283 4.79052 8.27703 4.90051 8 4.90051C7.72297 4.90051 7.45716 4.79052 7.26132 4.59455C7.06534 4.39869 6.95535 4.13289 6.95535 3.85586C6.95535 3.57883 7.06535 3.31303 7.26132 3.11718C7.45717 2.92121 7.72297 2.81122 8 2.81122ZM8.99181 7.19864C8.99181 6.64915 8.54937 6.20671 8 6.20671C7.45063 6.20671 7.00819 6.64915 7.00819 7.19864V12.197C7.00819 12.7463 7.45063 13.1888 8 13.1888C8.54937 13.1888 8.99181 12.7463 8.99181 12.197V7.19864Z" fill="#CE5151"/>
</svg>
